<?xml version="1.0" encoding="utf-8"?>
<!-- Generator: Adobe Illustrator 26.0.0, SVG Export Plug-In . SVG Version: 6.00 Build 0)  -->
<svg version="1.1" id="Layer_1" xmlns="http://www.w3.org/2000/svg" xmlns:xlink="http://www.w3.org/1999/xlink" x="0px" y="0px"
	 viewBox="0 0 100 100" style="enable-background:new 0 0 100 100;" xml:space="preserve">
<path id="Tile" fill="red" d="M96,100H4c-2.21,0-4-1.79-4-4V4c0-2.21,1.79-4,4-4h92c2.21,0,4,1.79,4,4v92
	C100,98.21,98.21,100,96,100z"/>
<path fill="rgba(0,0,0,.25)" d="M98.66,1.03l-1.41,1.41C97.71,2.81,98,3.37,98,4v92c0,1.1-0.9,2-2,2H4c-0.63,0-1.19-0.29-1.56-0.75l-1.41,1.41
	C1.75,99.48,2.82,100,4,100h92c2.21,0,4-1.79,4-4V4C100,2.82,99.48,1.75,98.66,1.03z"/>
<path fill="rgba(255,255,255,.25)" d="M97.65,0.37l-0.01-0.01C97.14,0.13,96.59,0,96,0H4C1.79,0,0,1.79,0,4v92c0,0.59,0.13,1.14,0.36,1.64l0.01,0.01
	c0.17,0.37,0.39,0.71,0.66,1.01l1.41-1.41C2.16,96.91,2,96.47,2,96V4c0-1.1,0.9-2,2-2h92c0.47,0,0.91,0.16,1.25,0.44l1.41-1.41
	C98.36,0.76,98.02,0.54,97.65,0.37z"/>
</svg>
