<svg xmlns="http://www.w3.org/2000/svg" width="26" height="26" viewBox="0 0 26 26"><g transform="translate(-3129 -881)"><rect width="26" height="26" rx="13" transform="translate(3129 881)" fill="#fff"/><path d="M20.563,10.563a10,10,0,1,1-10-10A10,10,0,0,1,20.563,10.563ZM9.406,15.857l7.419-7.419a.645.645,0,0,0,0-.912l-.912-.912a.645.645,0,0,0-.912,0L8.95,12.664,6.125,9.839a.645.645,0,0,0-.912,0l-.912.912a.645.645,0,0,0,0,.912l4.194,4.194a.645.645,0,0,0,.912,0Z" transform="translate(3131.438 883.438)"/></g></svg>