<svg xmlns="http://www.w3.org/2000/svg" width="23.301" height="26.63" viewBox="0 0 23.301 26.63"><path d="M25.8,20.558H8.322v-.832a.835.835,0,0,0-.832-.832H5.825a.835.835,0,0,0-.832.832v.832H.832A.835.835,0,0,0,0,21.39v1.664a.835.835,0,0,0,.832.832H4.993v.832a.835.835,0,0,0,.832.832H7.49a.835.835,0,0,0,.832-.832v-.832H25.8a.835.835,0,0,0,.832-.832V21.39A.835.835,0,0,0,25.8,20.558Zm0-8.322H21.637V11.4a.835.835,0,0,0-.832-.832H19.14a.835.835,0,0,0-.832.832v.832H.832A.835.835,0,0,0,0,13.068v1.664a.835.835,0,0,0,.832.832H18.308V16.4a.835.835,0,0,0,.832.832H20.8a.835.835,0,0,0,.832-.832v-.832H25.8a.835.835,0,0,0,.832-.832V13.068A.835.835,0,0,0,25.8,12.236Zm0-8.322H14.979V3.082a.835.835,0,0,0-.832-.832H12.483a.835.835,0,0,0-.832.832v.832H.832A.835.835,0,0,0,0,4.747V6.411a.835.835,0,0,0,.832.832H11.651v.832a.835.835,0,0,0,.832.832h1.664a.835.835,0,0,0,.832-.832V7.243H25.8a.835.835,0,0,0,.832-.832V4.747A.835.835,0,0,0,25.8,3.914Z" transform="translate(25.551) rotate(90)" fill="#072126"/></svg>