<svg xmlns="http://www.w3.org/2000/svg" width="28" height="29" viewBox="0 0 28 29"><g transform="translate(-1227 -290)"><path d="M2,0H3A17,17,0,0,1,20,17v1a2,2,0,0,1-2,2H2a2,2,0,0,1-2-2V2A2,2,0,0,1,2,0Z" transform="translate(1227 290)" fill="#072126"/><g transform="translate(1235 299)" fill="#fff" stroke="#072126" stroke-width="1"><rect width="20" height="20" stroke="none"/><rect x="0.5" y="0.5" width="19" height="19" fill="none"/></g><g transform="translate(1238 302)" fill="none" stroke="#072126" stroke-width="1"><circle cx="3" cy="3" r="3" stroke="none"/><circle cx="3" cy="3" r="2.5" fill="none"/></g><g transform="translate(1238 310)" fill="none" stroke="#072126" stroke-width="1"><circle cx="3" cy="3" r="3" stroke="none"/><circle cx="3" cy="3" r="2.5" fill="none"/></g><g transform="translate(1246 302)" fill="none" stroke="#072126" stroke-width="1"><circle cx="3" cy="3" r="3" stroke="none"/><circle cx="3" cy="3" r="2.5" fill="none"/></g><g transform="translate(1246 310)" fill="none" stroke="#072126" stroke-width="1"><circle cx="3" cy="3" r="3" stroke="none"/><circle cx="3" cy="3" r="2.5" fill="none"/></g></g></svg>