<svg xmlns="http://www.w3.org/2000/svg" width="25.542" height="23.408" viewBox="0 0 25.542 23.408"><g transform="translate(-1.511 -1.52)"><path d="M31.017,13.646H24.629a2.129,2.129,0,1,1,0-4.258h4.258V5.129a2.129,2.129,0,0,1,4.258,0v6.387A2.129,2.129,0,0,1,31.017,13.646Z" transform="translate(-6.093 -0.43)" fill="inherit"/><path d="M13.21,24.928q-.337,0-.676-.02A11.71,11.71,0,1,1,21.5,4.94l4.883,4.6a2.129,2.129,0,0,1-2.919,3.1L18.535,8A7.453,7.453,0,1,0,20.244,15.7a2.129,2.129,0,1,1,4.015,1.418A11.771,11.771,0,0,1,13.21,24.928Z" transform="translate(0 0)" fill="inherit"/></g></svg>