<svg xmlns="http://www.w3.org/2000/svg" width="23.987" height="23.986" viewBox="0 0 23.987 23.986"><path d="M7.824,14.492a4.741,4.741,0,0,0-4.553,3.387.715.715,0,0,1-.684.468c-.52,0-2.13-1.3-2.588-1.609,0,3.858,1.777,7.249,6,7.249,3.554,0,6-2.051,6-5.631a4.059,4.059,0,0,0-.045-.428L7.824,14.492ZM21.451,0a2.861,2.861,0,0,0-1.884.771C9.991,9.325,8.995,9.526,8.995,12.044A4.337,4.337,0,0,0,9.4,13.857l2.99,2.491a4.311,4.311,0,0,0,1.049.142c2.91,0,4.6-2.13,9.893-12.015a4.82,4.82,0,0,0,.651-2.155A2.439,2.439,0,0,0,21.451,0Z" transform="translate(0.001)" fill="inherit"/></svg>