<svg xmlns="http://www.w3.org/2000/svg" width="28" height="30" viewBox="0 0 28 30"><g transform="translate(-1227 -290)"><g transform="translate(-8 -9)"><g transform="translate(1235 299)" fill="#072126" stroke="#072126" stroke-width="1"><rect width="20" height="20" stroke="none"/><rect x="0.5" y="0.5" width="19" height="19" fill="none"/></g><g transform="translate(1238 302)" fill="none" stroke="#fff" stroke-width="1"><circle cx="3" cy="3" r="3" stroke="none"/><circle cx="3" cy="3" r="2.5" fill="none"/></g><g transform="translate(1238 310)" fill="none" stroke="#fff" stroke-width="1"><circle cx="3" cy="3" r="3" stroke="none"/><circle cx="3" cy="3" r="2.5" fill="none"/></g><g transform="translate(1246 302)" fill="none" stroke="#fff" stroke-width="1"><circle cx="3" cy="3" r="3" stroke="none"/><circle cx="3" cy="3" r="2.5" fill="none"/></g><g transform="translate(1246 310)" fill="none" stroke="#fff" stroke-width="1"><circle cx="3" cy="3" r="3" stroke="none"/><circle cx="3" cy="3" r="2.5" fill="none"/></g></g><g transform="translate(1235 300)" fill="#fff" stroke="#072126" stroke-width="1"><path d="M2,0H3A17,17,0,0,1,20,17v1a2,2,0,0,1-2,2H2a2,2,0,0,1-2-2V2A2,2,0,0,1,2,0Z" stroke="none"/><path d="M2,.5H3A16.5,16.5,0,0,1,19.5,17v1A1.5,1.5,0,0,1,18,19.5H2A1.5,1.5,0,0,1,.5,18V2A1.5,1.5,0,0,1,2,.5Z" fill="none"/></g></g></svg>