<svg xmlns="http://www.w3.org/2000/svg" width="23.692" height="19.25" viewBox="0 0 23.692 19.25"><path d="M2.221,3.375A2.221,2.221,0,1,0,4.442,5.6,2.221,2.221,0,0,0,2.221,3.375Zm0,7.4A2.221,2.221,0,1,0,4.442,13a2.221,2.221,0,0,0-2.221-2.221Zm0,7.4A2.221,2.221,0,1,0,4.442,20.4a2.221,2.221,0,0,0-2.221-2.221Zm20.731.74H8.144a.74.74,0,0,0-.74.74v1.481a.74.74,0,0,0,.74.74H22.952a.74.74,0,0,0,.74-.74V19.663A.74.74,0,0,0,22.952,18.923Zm0-14.808H8.144a.74.74,0,0,0-.74.74V6.337a.74.74,0,0,0,.74.74H22.952a.74.74,0,0,0,.74-.74V4.856A.74.74,0,0,0,22.952,4.115Zm0,7.4H8.144a.74.74,0,0,0-.74.74V13.74a.74.74,0,0,0,.74.74H22.952a.74.74,0,0,0,.74-.74V12.26A.74.74,0,0,0,22.952,11.519Z" transform="translate(0 -3.375)" fill="#072126"/></svg>