<svg xmlns="http://www.w3.org/2000/svg" width="26.751" height="26.75" viewBox="0 0 26.751 26.75"><path d="M26.908,18.088a8.365,8.365,0,0,0,.068-1.338c0-.468-.068-.869-.068-1.338l2.872-2.207a.614.614,0,0,0,.137-.869L27.181,7.722a.666.666,0,0,0-.821-.268L22.94,8.792a9.956,9.956,0,0,0-2.325-1.338L20.136,3.91a.733.733,0,0,0-.684-.535H13.98a.733.733,0,0,0-.684.535l-.547,3.544a11.583,11.583,0,0,0-2.326,1.338L7,7.454a.641.641,0,0,0-.821.268L3.446,12.337a.808.808,0,0,0,.137.869l2.941,2.207c0,.468-.068.869-.068,1.338s.068.869.068,1.338L3.652,20.294a.614.614,0,0,0-.137.869l2.736,4.615a.666.666,0,0,0,.821.268l3.42-1.338a9.954,9.954,0,0,0,2.325,1.338l.547,3.544a.663.663,0,0,0,.684.535H19.52a.733.733,0,0,0,.684-.535l.548-3.544a11.576,11.576,0,0,0,2.325-1.338l3.42,1.338a.641.641,0,0,0,.821-.268l2.736-4.615a.807.807,0,0,0-.137-.869ZM16.716,21.431A4.682,4.682,0,1,1,21.5,16.75,4.706,4.706,0,0,1,16.716,21.431Z" transform="translate(-3.375 -3.375)" fill="inherit"/></svg>