<svg xmlns="http://www.w3.org/2000/svg" width="22.086" height="22.086" viewBox="0 0 22.086 22.086"><path d="M2.189,14.375a2.761,2.761,0,0,0-.809,1.952v1.962L0,20.705l1.38,1.38L3.8,20.705H5.758A2.761,2.761,0,0,0,7.71,19.9l5.463-5.462L7.651,8.913ZM20.873,1.213a4.14,4.14,0,0,0-5.856,0L11.692,4.538l-.565-.565a1.035,1.035,0,0,0-1.464,0L7.9,5.74A1.035,1.035,0,0,0,7.9,7.2l6.985,6.985a1.035,1.035,0,0,0,1.464,0l1.767-1.767a1.035,1.035,0,0,0,0-1.464l-.565-.565,3.325-3.325a4.139,4.139,0,0,0,0-5.856Z" transform="translate(0 0)" fill="inherit"/></svg>