<svg id="Layer_2" data-name="Layer 2" xmlns="http://www.w3.org/2000/svg" viewBox="0 0 181.93 51.71"><defs><style>.cls-1{fill:#eab607;}.cls-2{fill:#1e95ac;}.cls-3{fill:#2236e5;}.cls-4{fill:#b40000;}.cls-5{fill:#fff;}</style></defs><path id="Path_9" data-name="Path 9" class="cls-1" d="M39.53.35A11.83,11.83,0,0,1,51.36,12.18V22.59A1.43,1.43,0,0,1,49.94,24H29.12a1.43,1.43,0,0,1-1.42-1.42h0V12.18A11.83,11.83,0,0,1,39.53.35Z"/><circle id="Ellipse_31" data-name="Ellipse 31" class="cls-2" cx="12" cy="12" r="12"/><rect id="Rectangle_71" data-name="Rectangle 71" class="cls-3" x="27.7" y="27.7" width="24.01" height="24.01" rx="2.77"/><path id="Rectangle_70" data-name="Rectangle 70" class="cls-4" d="M1.36,27.7H22.65A1.36,1.36,0,0,1,24,29.06h0V50.35a1.36,1.36,0,0,1-1.36,1.36h0A22.65,22.65,0,0,1,0,29.06H0A1.36,1.36,0,0,1,1.36,27.7Z"/><path class="cls-5" d="M75.36,3.08q7,0,7,7t-7,7H72.27v6.18H67.63V3.08Zm-3.09,9.28h3.09A2,2,0,0,0,77.68,10a2.05,2.05,0,0,0-2.32-2.32H72.27Z"/><path class="cls-5" d="M99.57,10.82V23.19H94.93V18.55H89.51v4.64H84.87V10.82q0-7.74,7.43-7.74Q99.56,3.08,99.57,10.82ZM92.3,7.72c-1.86,0-2.79,1-2.79,3.1v3.09h5.42V10.82C94.93,8.75,94.05,7.72,92.3,7.72Z"/><path class="cls-5" d="M115,3.08V7.72H110.4V23.19h-4.64V7.72h-4.64V3.08Z"/><path class="cls-5" d="M131.51,3.08V7.72h-4.64V23.19h-4.64V7.72h-4.64V3.08Z"/><path class="cls-5" d="M146,3.08l.47,4.64H138.7v3.1h6.19v4.64H138.7v3.09h7.74L146,23.19H134.06V3.08Z"/><path class="cls-5" d="M157.72,3.08q7,0,7,7,0,4.65-2.63,5.88l2.63,7.27h-5.1L157.72,17h-3.1v6.18H150V3.08Zm-3.1,9.28h3.1A2,2,0,0,0,160,10a2.05,2.05,0,0,0-2.32-2.32h-3.1Z"/><path class="cls-5" d="M177.29,10.82c0-2.07-.88-3.1-2.63-3.1s-2.79,1-2.79,3.1V23.19h-4.64V10.82q0-7.74,7.43-7.74,7.26,0,7.27,7.74V23.19h-4.64Z"/><path class="cls-5" d="M77.13,44.55h2.33L79,49.19H77.13q-10,0-10-10t10-10.06H79l.47,4.64H77.13c-3.6,0-5.41,1.81-5.41,5.42S73.53,44.55,77.13,44.55Z"/><path class="cls-5" d="M90.74,29.08q7,0,7,7,0,4.65-2.63,5.88l2.63,7.27H92.59L90.74,43h-3.1v6.18H83V29.08Zm-3.1,9.28h3.1A2,2,0,0,0,93.06,36a2.05,2.05,0,0,0-2.32-2.32h-3.1Z"/><path class="cls-5" d="M113.16,29.08l.47,4.64h-7.74v3.1h6.19v4.64h-6.19v3.09h7.74l-.47,4.64H101.25V29.08Z"/><path class="cls-5" d="M130.8,36.82V49.19h-4.64V44.55h-5.41v4.64H116.1V36.82q0-7.74,7.43-7.74Q130.81,29.08,130.8,36.82Zm-7.27-3.1c-1.86,0-2.78,1-2.78,3.1v3.09h5.41V36.82C126.16,34.75,125.28,33.72,123.53,33.72Z"/><path class="cls-5" d="M146.68,29.08v4.64H142V49.19H137.4V33.72h-4.64V29.08Z"/><path class="cls-5" d="M164.94,39.14q0,10.05-8.82,10-9,0-9-10t9-10.06Q164.94,29.08,164.94,39.14Zm-8.82-5.42q-4.34,0-4.33,5.42t4.33,5.41q4.17,0,4.17-5.41T156.12,33.72Z"/><path class="cls-5" d="M175,29.08q7,0,7,7,0,4.65-2.63,5.88l2.63,7.27h-5.11L175,43h-3.09v6.18h-4.64V29.08Zm-3.09,9.28H175A2.06,2.06,0,0,0,177.29,36,2.06,2.06,0,0,0,175,33.72h-3.09Z"/></svg>