<svg xmlns="http://www.w3.org/2000/svg" width="33.851" height="26.323" viewBox="0 0 33.851 26.323"><path d="M16.476,9.083,5.641,18.006v9.631a.94.94,0,0,0,.94.94l6.585-.017a.94.94,0,0,0,.936-.94V22a.94.94,0,0,1,.94-.94H18.8a.94.94,0,0,1,.94.94v5.62a.94.94,0,0,0,.94.943l6.583.018a.94.94,0,0,0,.94-.94V18L17.375,9.083A.716.716,0,0,0,16.476,9.083Zm17.114,6.065L28.677,11.1V2.959a.705.705,0,0,0-.705-.705H24.681a.705.705,0,0,0-.705.705V7.226L18.714,2.9a2.821,2.821,0,0,0-3.585,0L.255,15.148a.705.705,0,0,0-.094.993l1.5,1.822a.705.705,0,0,0,.994.1L16.476,6.673a.716.716,0,0,1,.9,0L31.2,18.058a.705.705,0,0,0,.993-.094l1.5-1.822a.705.705,0,0,0-.1-.995Z" transform="translate(0.001 -2.254)" fill="inherit"/></svg>