<svg xmlns="http://www.w3.org/2000/svg" width="28.037" height="19.121" viewBox="0 0 28.037 19.121"><path d="M2.676-14.854a1.738,1.738,0,0,1,1.23.435,1.468,1.468,0,0,1,.469,1.128,1.456,1.456,0,0,1-.469,1.118,1.738,1.738,0,0,1-1.23.435,1.738,1.738,0,0,1-1.23-.435,1.456,1.456,0,0,1-.469-1.118,1.468,1.468,0,0,1,.469-1.128A1.738,1.738,0,0,1,2.676-14.854ZM4.258.42a3.848,3.848,0,0,1-1,2.852,3.807,3.807,0,0,1-2.808,1A6.2,6.2,0,0,1-1.035,4.1V1.689a6.423,6.423,0,0,0,.918.088A1.187,1.187,0,0,0,1.211.42V-10.566H4.258Zm7.588-11.182a3.777,3.777,0,0,1,2.246.659,4.017,4.017,0,0,1,1.4,1.865,7.711,7.711,0,0,1,.474,2.827v.205a7.592,7.592,0,0,1-.479,2.778A4.309,4.309,0,0,1,14.087-.5a3.576,3.576,0,0,1-2.222.7,3.159,3.159,0,0,1-2.49-1.1V4.063H6.328V-10.566H9.16l.107,1.006A3.176,3.176,0,0,1,11.846-10.762ZM12.92-5.41a4.263,4.263,0,0,0-.444-2.114,1.5,1.5,0,0,0-1.4-.776,2.174,2.174,0,0,0-1.06.229,1.521,1.521,0,0,0-.64.7v4.141a1.736,1.736,0,0,0,1.719.967,1.465,1.465,0,0,0,1.4-.806,4.541,4.541,0,0,0,.43-2.134ZM27-10.566V-.4a4.529,4.529,0,0,1-.649,2.466,4.093,4.093,0,0,1-1.826,1.563,6.591,6.591,0,0,1-2.739.532,6.157,6.157,0,0,1-2.192-.42,4.1,4.1,0,0,1-1.743-1.182L19.17.693a3.41,3.41,0,0,0,1.094.806,3.246,3.246,0,0,0,1.4.3,2.349,2.349,0,0,0,1.694-.576,2.154,2.154,0,0,0,.6-1.631V-.9A3.209,3.209,0,0,1,21.465.2a3.826,3.826,0,0,1-2.271-.688A4.392,4.392,0,0,1,17.7-2.4a6.935,6.935,0,0,1-.522-2.754v-.205A7.121,7.121,0,0,1,17.7-8.184a4.312,4.312,0,0,1,1.5-1.9,3.9,3.9,0,0,1,2.285-.679A3.224,3.224,0,0,1,24.131-9.6l.117-.967Zm-4.766,8.3a1.9,1.9,0,0,0,1.719-.84V-7.461a1.855,1.855,0,0,0-1.7-.84,1.685,1.685,0,0,0-1.509.815,3.881,3.881,0,0,0-.522,2.124v.205a3.827,3.827,0,0,0,.513,2.085A1.667,1.667,0,0,0,22.236-2.266Z" transform="translate(1.035 14.854)" fill="#072126"/></svg>